<?xml version="1.0" encoding="UTF-8"?><svg xmlns="http://www.w3.org/2000/svg" viewBox="0 0 260.12 127.02"><defs><style>.cls-1{fill:#fff;}.cls-2{fill:#d92d32;}</style></defs><g id="bob_s_n_barley"><g><path class="cls-1" d="M9.81,103.24c-1.86,0-3.52-.43-5-1.3-1.48-.87-2.64-2.05-3.5-3.55-.86-1.5-1.3-3.19-1.32-5.07v-16.27c0-.55,.17-.99,.52-1.32,.34-.33,.78-.5,1.3-.5s.99,.17,1.32,.5c.33,.33,.5,.77,.5,1.32v9.63c.83-1,1.84-1.79,3.01-2.37,1.18-.58,2.47-.87,3.87-.87,1.74,0,3.29,.43,4.67,1.3s2.47,2.05,3.26,3.53,1.2,3.17,1.2,5.05-.43,3.57-1.3,5.07c-.87,1.5-2.04,2.68-3.51,3.55-1.48,.87-3.15,1.3-5.03,1.3Zm0-3.21c1.21,0,2.29-.29,3.25-.87,.95-.58,1.71-1.39,2.27-2.41,.56-1.02,.84-2.16,.84-3.43s-.28-2.43-.84-3.42c-.56-1-1.31-1.79-2.27-2.37-.95-.58-2.03-.87-3.25-.87s-2.27,.29-3.23,.87c-.96,.58-1.72,1.37-2.27,2.37-.55,1-.82,2.14-.82,3.42s.27,2.4,.82,3.43c.55,1.02,1.3,1.83,2.27,2.41s2.04,.87,3.23,.87Z"/><path class="cls-1" d="M33.93,103.24c-1.93,0-3.63-.42-5.1-1.27-1.48-.84-2.63-2.01-3.48-3.5s-1.27-3.19-1.27-5.12,.42-3.67,1.27-5.16,2-2.65,3.48-3.5c1.47-.84,3.18-1.27,5.1-1.27s3.59,.42,5.07,1.27c1.47,.84,2.63,2.01,3.48,3.5,.84,1.49,1.27,3.21,1.27,5.16s-.42,3.63-1.25,5.12c-.83,1.49-1.99,2.65-3.46,3.5-1.48,.84-3.18,1.27-5.1,1.27Zm0-3.21c1.24,0,2.33-.29,3.28-.86,.95-.57,1.69-1.36,2.23-2.35s.8-2.15,.8-3.46-.27-2.47-.8-3.48-1.28-1.8-2.23-2.37c-.95-.57-2.05-.86-3.28-.86s-2.33,.29-3.28,.86c-.95,.57-1.7,1.36-2.25,2.37-.55,1.01-.82,2.17-.82,3.48s.27,2.46,.82,3.46c.55,1,1.3,1.78,2.25,2.35,.95,.57,2.05,.86,3.28,.86Z"/><path class="cls-1" d="M58.98,103.24c-1.86,0-3.52-.43-5-1.3-1.48-.87-2.64-2.05-3.5-3.55-.86-1.5-1.3-3.19-1.32-5.07v-16.27c0-.55,.17-.99,.52-1.32,.34-.33,.78-.5,1.3-.5s.99,.17,1.32,.5c.33,.33,.5,.77,.5,1.32v9.63c.83-1,1.84-1.79,3.01-2.37,1.18-.58,2.47-.87,3.87-.87,1.74,0,3.29,.43,4.67,1.3s2.47,2.05,3.26,3.53,1.2,3.17,1.2,5.05-.43,3.57-1.3,5.07c-.87,1.5-2.04,2.68-3.51,3.55-1.48,.87-3.15,1.3-5.03,1.3Zm0-3.21c1.21,0,2.29-.29,3.25-.87,.95-.58,1.71-1.39,2.27-2.41,.56-1.02,.84-2.16,.84-3.43s-.28-2.43-.84-3.42c-.56-1-1.31-1.79-2.27-2.37-.95-.58-2.03-.87-3.25-.87s-2.27,.29-3.23,.87c-.96,.58-1.72,1.37-2.27,2.37-.55,1-.82,2.14-.82,3.42s.27,2.4,.82,3.43c.55,1.02,1.3,1.83,2.27,2.41s2.04,.87,3.23,.87Z"/><path class="cls-1" d="M72.07,85.19c-.38,0-.67-.17-.87-.52s-.22-.71-.05-1.09c.43-.97,.69-1.77,.79-2.39,.09-.62,.1-1.15,.02-1.61-.08-.45-.18-.89-.3-1.3-.12-.42-.18-.89-.18-1.41,0-.62,.21-1.13,.64-1.53s.94-.61,1.53-.61c.74,0,1.31,.31,1.71,.93,.4,.62,.61,1.39,.61,2.32,0,.62-.13,1.33-.39,2.14-.26,.81-.59,1.6-.98,2.37-.39,.77-.81,1.42-1.27,1.93-.45,.51-.87,.77-1.25,.77Z"/><path class="cls-1" d="M88.05,103.24c-1.67,0-3.21-.25-4.62-.77-1.42-.51-2.52-1.16-3.3-1.95-.36-.38-.51-.81-.45-1.3,.06-.49,.29-.89,.7-1.2,.48-.38,.95-.54,1.41-.48,.46,.06,.86,.27,1.2,.62,.4,.45,1.05,.87,1.94,1.27,.89,.39,1.88,.59,2.98,.59,1.38,0,2.43-.23,3.16-.68,.73-.45,1.1-1.04,1.12-1.75,.02-.71-.32-1.33-1.02-1.86-.7-.52-1.98-.95-3.84-1.29-2.4-.47-4.15-1.19-5.23-2.14-1.08-.95-1.62-2.12-1.62-3.5,0-1.21,.36-2.22,1.07-3.01,.71-.8,1.63-1.39,2.75-1.78,1.12-.39,2.28-.59,3.5-.59,1.57,0,2.96,.25,4.17,.75,1.21,.5,2.18,1.19,2.89,2.07,.33,.38,.49,.78,.46,1.2-.02,.42-.23,.77-.61,1.05-.38,.26-.83,.34-1.36,.25-.52-.09-.96-.31-1.32-.64-.59-.57-1.24-.96-1.93-1.18-.69-.21-1.49-.32-2.39-.32-1.05,0-1.93,.18-2.66,.54-.73,.36-1.09,.88-1.09,1.57,0,.43,.11,.82,.34,1.16s.67,.65,1.34,.93c.67,.27,1.64,.54,2.93,.8,1.78,.36,3.19,.81,4.23,1.36,1.03,.55,1.78,1.18,2.23,1.91,.45,.73,.68,1.56,.68,2.51,0,1.09-.29,2.08-.87,2.96-.58,.88-1.44,1.58-2.57,2.1-1.13,.52-2.54,.79-4.23,.79Z"/><path class="cls-2" d="M112.6,103.13c-.52,0-.96-.17-1.3-.52-.35-.34-.52-.78-.52-1.3v-15.91c0-.55,.17-.99,.52-1.32,.34-.33,.78-.5,1.3-.5s.99,.17,1.32,.5c.33,.33,.5,.77,.5,1.32v15.91c0,.52-.17,.96-.5,1.3-.33,.34-.77,.52-1.32,.52Zm14.66,0c-.52,0-.96-.17-1.3-.52-.35-.34-.52-.78-.52-1.3v-8.78c0-1.36-.25-2.46-.75-3.32s-1.17-1.49-2.02-1.91c-.84-.42-1.81-.62-2.91-.62-1,0-1.9,.2-2.71,.61-.81,.4-1.45,.95-1.93,1.62-.48,.68-.71,1.46-.71,2.34h-2.25c0-1.5,.36-2.84,1.09-4.01,.73-1.18,1.72-2.11,2.98-2.8,1.26-.69,2.68-1.03,4.25-1.03s3.11,.35,4.41,1.05c1.3,.7,2.32,1.73,3.07,3.09,.75,1.36,1.12,3.02,1.12,5v8.78c0,.52-.17,.96-.52,1.3-.35,.34-.78,.52-1.3,.52Z"/><path class="cls-1" d="M155.38,103.24c-1.85,0-3.52-.43-5-1.3s-2.64-2.05-3.5-3.55c-.86-1.5-1.3-3.19-1.32-5.07v-16.27c0-.55,.17-.99,.52-1.32s.78-.5,1.3-.5,.99,.17,1.32,.5,.5,.77,.5,1.32v9.63c.83-1,1.84-1.79,3.01-2.37,1.18-.58,2.47-.87,3.87-.87,1.74,0,3.29,.43,4.67,1.3,1.38,.87,2.47,2.05,3.26,3.53s1.2,3.17,1.2,5.05-.43,3.57-1.3,5.07c-.87,1.5-2.04,2.68-3.51,3.55-1.48,.87-3.15,1.3-5.03,1.3Zm0-3.21c1.21,0,2.3-.29,3.25-.87s1.71-1.39,2.27-2.41c.56-1.02,.84-2.16,.84-3.43s-.28-2.43-.84-3.42c-.56-1-1.31-1.79-2.27-2.37-.95-.58-2.03-.87-3.25-.87s-2.27,.29-3.23,.87c-.96,.58-1.72,1.37-2.27,2.37-.55,1-.82,2.14-.82,3.42s.27,2.4,.82,3.43c.55,1.02,1.3,1.83,2.27,2.41,.96,.58,2.04,.87,3.23,.87Z"/><path class="cls-1" d="M178.78,103.24c-1.74,0-3.29-.43-4.67-1.3-1.38-.87-2.47-2.05-3.26-3.53s-1.2-3.17-1.2-5.05,.43-3.57,1.3-5.07c.87-1.5,2.04-2.68,3.53-3.55,1.49-.87,3.16-1.3,5.01-1.3s3.52,.43,5,1.3c1.47,.87,2.65,2.05,3.51,3.55,.87,1.5,1.3,3.19,1.3,5.07h-1.39c0,1.88-.4,3.56-1.2,5.05s-1.88,2.66-3.26,3.53-2.94,1.3-4.67,1.3Zm.71-3.21c1.21,0,2.29-.29,3.25-.87,.95-.58,1.7-1.38,2.25-2.39,.55-1.01,.82-2.15,.82-3.41s-.27-2.43-.82-3.44c-.55-1.01-1.3-1.81-2.25-2.39-.95-.58-2.03-.87-3.25-.87s-2.27,.29-3.23,.87c-.96,.58-1.72,1.38-2.28,2.39-.56,1.01-.84,2.16-.84,3.44s.28,2.4,.84,3.41c.56,1.01,1.32,1.81,2.28,2.39,.96,.58,2.04,.87,3.23,.87Zm7.99,3.1c-.52,0-.96-.17-1.3-.52s-.52-.78-.52-1.3v-5.46l.68-3.78,2.96,1.28v7.96c0,.52-.17,.96-.52,1.3s-.78,.52-1.3,.52Z"/><path class="cls-1" d="M196.52,103.1c-.57,0-1.01-.15-1.32-.45-.31-.3-.46-.74-.46-1.34v-15.95c0-.57,.15-1.01,.46-1.32s.75-.46,1.32-.46,1.04,.15,1.34,.45c.3,.3,.45,.74,.45,1.34v15.95c0,.57-.15,1.01-.45,1.32-.3,.31-.74,.46-1.34,.46Zm-.04-12.2c0-1.43,.35-2.71,1.05-3.84,.7-1.13,1.65-2.03,2.84-2.69,1.19-.67,2.5-1,3.92-1s2.49,.23,3.19,.7c.7,.46,.97,1.02,.8,1.66-.07,.33-.21,.59-.41,.77s-.43,.29-.7,.34-.55,.04-.86-.04c-1.52-.31-2.89-.33-4.1-.07-1.21,.26-2.17,.75-2.87,1.46-.7,.71-1.05,1.62-1.05,2.71h-1.82Z"/><path class="cls-1" d="M216.71,103.1c-1.05,0-1.97-.29-2.78-.86-.81-.57-1.44-1.35-1.89-2.34-.45-.99-.68-2.12-.68-3.41v-19.48c0-.52,.17-.95,.5-1.28s.76-.5,1.28-.5,.95,.17,1.28,.5,.5,.76,.5,1.28v19.48c0,.88,.17,1.61,.5,2.18,.33,.57,.76,.86,1.29,.86h.89c.48,0,.86,.17,1.16,.5,.3,.33,.45,.76,.45,1.28s-.23,.95-.68,1.29c-.45,.33-1.03,.5-1.75,.5h-.07Z"/><path class="cls-1" d="M230.87,103.24c-1.97,0-3.73-.42-5.26-1.27-1.53-.84-2.74-2.01-3.6-3.5-.87-1.49-1.3-3.19-1.3-5.12s.41-3.67,1.23-5.16c.82-1.49,1.96-2.65,3.41-3.5,1.45-.84,3.12-1.27,5-1.27s3.45,.41,4.78,1.23c1.33,.82,2.35,1.95,3.05,3.39,.7,1.44,1.05,3.1,1.05,4.98,0,.45-.16,.83-.46,1.12-.31,.3-.7,.45-1.18,.45h-14.38v-2.85h14.27l-1.46,1c-.02-1.19-.26-2.25-.71-3.19-.45-.94-1.09-1.68-1.93-2.23-.83-.55-1.84-.82-3.03-.82-1.36,0-2.52,.3-3.48,.89-.96,.59-1.69,1.41-2.19,2.44-.5,1.04-.75,2.21-.75,3.51s.3,2.47,.89,3.5c.59,1.02,1.42,1.83,2.46,2.43,1.05,.59,2.25,.89,3.6,.89,.74,0,1.49-.14,2.27-.41,.77-.27,1.4-.59,1.87-.95,.36-.26,.74-.4,1.16-.41s.78,.11,1.09,.37c.4,.36,.62,.75,.64,1.18,.02,.43-.17,.8-.57,1.11-.81,.64-1.81,1.17-3.02,1.57s-2.35,.61-3.44,.61Z"/><path class="cls-1" d="M251.57,102.31c-.45,.19-.87,.21-1.27,.05-.39-.15-.71-.46-.95-.91l-8.17-15.52c-.24-.45-.27-.89-.09-1.3,.18-.42,.49-.72,.95-.91,.45-.19,.88-.21,1.28-.05,.4,.15,.71,.46,.93,.91l7.81,15.52c.24,.45,.33,.89,.27,1.3s-.32,.72-.77,.91Zm-4.21,9.35c-.24,0-.52-.07-.86-.21-1.05-.48-1.33-1.23-.86-2.25l10.88-24.58c.48-1,1.22-1.28,2.25-.86,1.07,.45,1.37,1.2,.89,2.25l-10.92,24.55c-.29,.74-.75,1.11-1.39,1.11Z"/></g></g><g id="Hotel___Restaurant"><g><g><path class="cls-1" d="M187.33,124.98v-7.46h.32v4.08c.18-.36,.46-.66,.84-.88s.78-.33,1.19-.33c.66,0,1.21,.23,1.68,.69s.69,1.01,.69,1.66-.23,1.19-.69,1.66-1.02,.69-1.68,.69c-.4,0-.79-.11-1.16-.32s-.67-.51-.87-.87v1.08h-.32Zm.3-2.23c0,.56,.2,1.04,.61,1.45,.41,.41,.89,.61,1.45,.61s1.04-.2,1.44-.61c.4-.41,.6-.89,.6-1.45s-.2-1.05-.6-1.46c-.4-.41-.88-.62-1.44-.62s-1.04,.21-1.45,.62-.61,.9-.61,1.46Z"/><path class="cls-1" d="M189.67,125.14c-.41,0-.81-.11-1.19-.33-.32-.18-.59-.43-.78-.72v.94h-.43v-7.57h.43v3.92c.18-.29,.44-.53,.76-.71,.39-.22,.8-.34,1.22-.34,.67,0,1.25,.24,1.71,.71s.71,1.04,.71,1.69-.24,1.23-.71,1.7-1.05,.71-1.71,.71Zm-2.08-1.47l.1,.19c.19,.35,.48,.64,.84,.85,.37,.21,.75,.32,1.14,.32,.64,0,1.19-.23,1.64-.67s.67-.99,.67-1.62-.23-1.17-.67-1.62-1-.67-1.64-.67c-.4,0-.79,.11-1.16,.32-.37,.21-.64,.5-.82,.85l-.11,.22v-4.26h-.21v7.35h.21v-1.25Zm2.1,1.19c-.57,0-1.07-.21-1.49-.63-.42-.42-.63-.92-.63-1.49s.21-1.07,.63-1.5c.42-.42,.92-.64,1.49-.64s1.07,.21,1.48,.63c.41,.42,.62,.92,.62,1.5s-.21,1.07-.61,1.49c-.41,.42-.9,.63-1.48,.63Zm0-4.14c-.54,0-1.01,.2-1.41,.6s-.6,.88-.6,1.42,.2,1.01,.6,1.41c.39,.39,.87,.6,1.41,.6s1.01-.2,1.4-.59c.39-.39,.58-.87,.58-1.41s-.2-1.02-.59-1.42c-.39-.4-.86-.6-1.4-.6Z"/></g><g><path class="cls-1" d="M196.58,120.5h.32v4.34c0,.59-.21,1.09-.62,1.5s-.91,.62-1.51,.62c-.72,0-1.28-.28-1.7-.83l.02-.5c.19,.32,.43,.57,.73,.76,.3,.19,.62,.28,.95,.28,.49,0,.91-.18,1.27-.53,.36-.35,.54-.78,.54-1.28v-.76c-.32,.65-.89,.97-1.7,.97-.55,0-1.02-.19-1.41-.58-.39-.39-.59-.85-.59-1.4v-2.61h.32v2.61c0,.46,.17,.86,.5,1.19,.33,.34,.73,.51,1.19,.51s.85-.17,1.19-.51c.33-.34,.5-.74,.5-1.19v-2.61Z"/><path class="cls-1" d="M194.77,127.01c-.73,0-1.32-.29-1.74-.85v-.02l.02-.71,.1,.17c.18,.31,.42,.56,.71,.74,.29,.18,.6,.27,.92,.27,.47,0,.89-.17,1.23-.52,.35-.34,.52-.76,.52-1.24v-.54c-.35,.54-.9,.82-1.64,.82-.56,0-1.05-.2-1.45-.6-.4-.4-.6-.88-.6-1.44v-2.66h.43v2.66c0,.44,.16,.83,.49,1.15,.32,.33,.71,.49,1.15,.49s.83-.16,1.15-.49c.32-.33,.49-.71,.49-1.15v-2.66h.43v4.39c0,.6-.21,1.12-.63,1.54s-.94,.63-1.55,.63Zm-1.64-.9c.4,.52,.96,.79,1.64,.79,.58,0,1.07-.2,1.47-.6s.6-.89,.6-1.46v-4.28h-.21v2.55c0,.47-.17,.89-.52,1.23-.34,.35-.76,.52-1.23,.52s-.88-.18-1.23-.52c-.34-.35-.52-.76-.52-1.23v-2.55h-.21v2.55c0,.53,.19,.98,.57,1.36,.38,.38,.84,.57,1.37,.57,.79,0,1.33-.31,1.65-.94l.11-.21v.99c0,.51-.19,.95-.55,1.32-.37,.36-.81,.55-1.31,.55-.34,0-.67-.1-.98-.29-.26-.16-.48-.37-.65-.63v.3Z"/></g><g><path class="cls-1" d="M203.71,125.1h-.09c-.63,0-1.18-.24-1.65-.71-.47-.47-.7-1.03-.7-1.66s.23-1.18,.7-1.64c.46-.46,1.04-.69,1.72-.69s1.27,.27,1.76,.82l-3.12,3.08c.43,.34,.85,.52,1.24,.52s.75-.09,1.07-.27c.31-.18,.57-.43,.78-.73v.51c-.47,.52-1.04,.78-1.71,.78Zm-.1-4.41c-.53,0-.99,.2-1.4,.61-.41,.41-.61,.88-.61,1.41s.18,.99,.53,1.39l2.89-2.87c-.41-.36-.88-.54-1.41-.54Z"/><path class="cls-1" d="M203.71,125.15h-.09c-.64,0-1.21-.24-1.69-.73-.48-.48-.72-1.05-.72-1.69s.24-1.21,.71-1.68c.47-.47,1.06-.71,1.76-.71s1.3,.28,1.8,.83l.04,.04-3.12,3.08c.4,.31,.79,.47,1.16,.47,.39,0,.74-.09,1.04-.27,.31-.18,.56-.42,.76-.71l.1-.15v.73c-.49,.53-1.08,.79-1.77,.79Zm-.02-4.69c-.66,0-1.23,.23-1.68,.67-.45,.45-.68,.98-.68,1.6s.23,1.16,.68,1.62c.45,.46,.99,.69,1.61,.69h.09c.64,0,1.2-.25,1.65-.74v-.31c-.19,.25-.43,.45-.7,.61-.32,.19-.69,.28-1.1,.28s-.84-.18-1.28-.53l-.05-.04,3.13-3.09c-.47-.5-1.04-.76-1.68-.76Zm-1.57,3.71l-.04-.04c-.36-.41-.54-.89-.54-1.43s.21-1.03,.63-1.45c.42-.42,.9-.63,1.44-.63s1.02,.19,1.44,.55l.05,.04-2.98,2.96Zm1.49-3.44c-.51,0-.97,.2-1.36,.6-.39,.39-.6,.85-.6,1.37s.16,.93,.47,1.31l2.81-2.79c-.39-.32-.83-.48-1.32-.48Z"/></g><g><path class="cls-1" d="M208.56,125.11h-.09c-.64,0-1.18-.24-1.64-.71-.46-.47-.69-1.02-.69-1.66s.23-1.18,.7-1.64c.46-.46,1.03-.69,1.71-.69s1.25,.26,1.73,.77v.51c-.21-.3-.47-.55-.78-.73s-.64-.27-.99-.27c-.55,0-1.03,.2-1.44,.61s-.61,.89-.61,1.46,.2,1.05,.61,1.46c.41,.41,.89,.61,1.44,.61,.34,0,.67-.09,.99-.27,.31-.18,.58-.42,.78-.74v.52c-.46,.51-1.04,.77-1.72,.77Z"/><path class="cls-1" d="M208.56,125.16h-.09c-.65,0-1.21-.24-1.68-.72-.47-.48-.7-1.05-.7-1.69s.24-1.21,.71-1.68c.47-.47,1.06-.71,1.75-.71s1.28,.26,1.77,.78l.02,.02v.71l-.1-.15c-.2-.3-.46-.53-.76-.71-.31-.17-.63-.26-.96-.26-.53,0-1,.2-1.4,.6s-.6,.87-.6,1.42,.2,1.02,.6,1.42c.39,.39,.86,.6,1.4,.6,.33,0,.66-.09,.96-.26,.31-.17,.56-.42,.76-.72l.1-.16v.74c-.49,.52-1.08,.78-1.78,.78Zm0-4.69c-.66,0-1.22,.23-1.67,.68-.45,.45-.68,.99-.68,1.6s.23,1.16,.67,1.62c.44,.46,.98,.69,1.6,.69h.09c.66,0,1.22-.25,1.66-.73v-.32c-.19,.25-.43,.46-.7,.61-.32,.18-.66,.28-1.02,.28-.56,0-1.06-.21-1.48-.63-.42-.42-.63-.92-.63-1.5s.21-1.08,.63-1.5,.91-.63,1.48-.63c.35,0,.69,.09,1.02,.28,.27,.15,.5,.36,.7,.6v-.31c-.46-.49-1.02-.73-1.67-.73Z"/></g><g><path class="cls-1" d="M211.57,124.37c-.46-.47-.69-1.03-.69-1.66s.23-1.17,.7-1.64c.46-.46,1.02-.69,1.68-.69s1.21,.23,1.67,.69,.69,1.01,.69,1.64-.23,1.18-.68,1.66c-.45,.47-1,.71-1.64,.71h-.09c-.64,0-1.18-.24-1.64-.71Zm3.73-1.63c0-.56-.2-1.05-.6-1.46-.4-.41-.88-.62-1.44-.62s-1.04,.21-1.45,.62c-.41,.41-.61,.9-.61,1.46s.2,1.04,.61,1.45c.41,.41,.89,.61,1.45,.61s1.04-.2,1.44-.61c.4-.41,.6-.89,.6-1.45Z"/><path class="cls-1" d="M213.3,125.14h-.09c-.65,0-1.21-.24-1.68-.73-.47-.48-.7-1.05-.7-1.69s.24-1.21,.71-1.68c.47-.47,1.05-.71,1.71-.71s1.24,.24,1.71,.71,.71,1.03,.71,1.68-.23,1.21-.69,1.69c-.46,.48-1.03,.72-1.68,.72Zm-.04-4.69c-.63,0-1.19,.23-1.64,.68-.45,.45-.68,.98-.68,1.6s.23,1.16,.67,1.62c.44,.46,.98,.69,1.6,.69h.09c.62,0,1.16-.23,1.6-.69,.44-.46,.66-1,.66-1.62s-.23-1.15-.67-1.6-1-.67-1.63-.67Zm.01,4.41c-.57,0-1.07-.21-1.49-.63-.42-.42-.63-.92-.63-1.49s.21-1.07,.63-1.5c.42-.42,.92-.64,1.49-.64s1.07,.21,1.48,.63c.41,.42,.62,.92,.62,1.5s-.21,1.07-.61,1.49c-.41,.42-.9,.63-1.48,.63Zm0-4.14c-.54,0-1.01,.2-1.41,.6-.4,.4-.6,.88-.6,1.42s.2,1.01,.6,1.41c.39,.39,.87,.6,1.41,.6s1.01-.2,1.4-.59c.39-.39,.58-.87,.58-1.41s-.2-1.02-.59-1.42c-.39-.4-.86-.6-1.4-.6Z"/></g><g><path class="cls-1" d="M220.36,124.98h-.32v-7.45h.32v3.84c.33-.65,.9-.97,1.72-.97,.56,0,1.03,.19,1.41,.58,.38,.38,.57,.85,.57,1.4v2.61h-.32v-2.61c0-.46-.16-.86-.49-1.2-.32-.33-.72-.5-1.17-.5s-.86,.17-1.2,.51c-.34,.34-.52,.74-.52,1.19v2.61Z"/><path class="cls-1" d="M224.11,125.03h-.43v-2.66c0-.45-.16-.84-.47-1.16-.31-.32-.69-.49-1.13-.49s-.83,.17-1.16,.49c-.33,.33-.5,.71-.5,1.15v2.66h-.43v-7.56h.43v3.68c.35-.55,.91-.82,1.66-.82,.57,0,1.06,.2,1.45,.59,.39,.39,.59,.88,.59,1.44v2.66Zm-.32-.11h.21v-2.55c0-.53-.19-.99-.56-1.36-.37-.37-.83-.56-1.37-.56-.79,0-1.35,.32-1.67,.94l-.11,.21v-4.01h-.21v7.34h.21v-2.55c0-.47,.18-.89,.53-1.23,.35-.35,.77-.52,1.24-.52s.88,.17,1.21,.52c.33,.34,.5,.76,.5,1.24v2.55Z"/></g><g><path class="cls-1" d="M225.59,124.37c-.46-.47-.69-1.03-.69-1.66s.23-1.17,.7-1.64c.46-.46,1.02-.69,1.68-.69s1.21,.23,1.67,.69,.69,1.01,.69,1.64-.23,1.18-.68,1.66c-.45,.47-1,.71-1.64,.71h-.09c-.64,0-1.18-.24-1.64-.71Zm3.73-1.63c0-.56-.2-1.05-.6-1.46-.4-.41-.88-.62-1.44-.62s-1.04,.21-1.45,.62c-.41,.41-.61,.9-.61,1.46s.2,1.04,.61,1.45c.41,.41,.89,.61,1.45,.61s1.04-.2,1.44-.61c.4-.41,.6-.89,.6-1.45Z"/><path class="cls-1" d="M227.32,125.14h-.09c-.65,0-1.21-.24-1.68-.73-.47-.48-.7-1.05-.7-1.69s.24-1.21,.71-1.68c.47-.47,1.05-.71,1.71-.71s1.24,.24,1.71,.71,.71,1.03,.71,1.68-.23,1.21-.69,1.69c-.46,.48-1.03,.72-1.68,.72Zm-.04-4.69c-.63,0-1.19,.23-1.64,.68-.45,.45-.68,.98-.68,1.6s.23,1.16,.67,1.62c.44,.46,.98,.69,1.6,.69h.09c.62,0,1.16-.23,1.6-.69,.44-.46,.66-1,.66-1.62s-.23-1.15-.67-1.6-1-.67-1.63-.67Zm.01,4.41c-.57,0-1.07-.21-1.49-.63-.42-.42-.63-.92-.63-1.49s.21-1.07,.63-1.5c.42-.42,.92-.64,1.49-.64s1.07,.21,1.48,.63c.41,.42,.62,.92,.62,1.5s-.21,1.07-.61,1.49c-.41,.42-.9,.63-1.48,.63Zm0-4.14c-.54,0-1.01,.2-1.41,.6-.4,.4-.6,.88-.6,1.42s.2,1.01,.6,1.41c.39,.39,.87,.6,1.41,.6s1.01-.2,1.4-.59c.39-.39,.58-.87,.58-1.41s-.2-1.02-.59-1.42c-.39-.4-.86-.6-1.4-.6Z"/></g><g><path class="cls-1" d="M231.55,120.66c-.17,0-.32,.06-.46,.17-.13,.11-.2,.25-.2,.42s.07,.32,.22,.46c.15,.14,.33,.27,.54,.38,.21,.12,.42,.24,.63,.37,.21,.13,.39,.3,.54,.51,.15,.21,.22,.44,.22,.71,0,.39-.15,.72-.44,1s-.65,.41-1.07,.41c-.27,0-.51-.06-.74-.17-.23-.12-.4-.27-.5-.46v-.48c.25,.56,.66,.84,1.21,.84,.34,0,.63-.11,.87-.32,.24-.21,.35-.45,.35-.71s-.07-.48-.22-.66c-.15-.18-.33-.33-.54-.46s-.42-.25-.63-.37c-.21-.12-.39-.27-.54-.45s-.22-.38-.22-.62,.09-.43,.28-.6c.19-.16,.43-.24,.73-.24s.55,.12,.77,.35v.41c-.21-.32-.48-.48-.81-.48Z"/><path class="cls-1" d="M231.54,125.14c-.27,0-.53-.06-.77-.18-.24-.12-.41-.28-.53-.49v-.76l.1,.24c.24,.54,.62,.8,1.16,.8,.33,0,.61-.1,.83-.3,.22-.2,.33-.43,.33-.67s-.07-.46-.21-.63c-.14-.17-.32-.32-.53-.45-.21-.13-.42-.25-.63-.37-.21-.12-.4-.28-.55-.46-.16-.19-.24-.4-.24-.65s.1-.47,.3-.64c.2-.17,.46-.26,.77-.26s.58,.12,.81,.37v.63l-.09-.15c-.2-.3-.45-.45-.76-.45-.16,0-.3,.05-.42,.16-.12,.1-.18,.23-.18,.38s.07,.29,.21,.42c.15,.14,.32,.26,.53,.37,.21,.11,.42,.24,.63,.37,.22,.14,.4,.31,.56,.52,.16,.21,.23,.46,.23,.74,0,.41-.15,.76-.46,1.04-.3,.28-.68,.43-1.11,.43Zm-1.19-.71c.1,.18,.26,.32,.47,.43,.22,.11,.46,.17,.72,.17,.4,0,.75-.13,1.03-.4,.28-.26,.42-.59,.42-.96,0-.25-.07-.48-.21-.67-.14-.2-.32-.36-.53-.49-.21-.13-.42-.26-.63-.37-.21-.12-.4-.25-.55-.39-.16-.15-.24-.32-.24-.5s.07-.34,.22-.46c.14-.12,.31-.18,.49-.18,.29,0,.54,.12,.75,.37v-.22c-.2-.21-.43-.31-.71-.31s-.52,.08-.69,.23c-.18,.15-.26,.33-.26,.55s.07,.42,.21,.58c.14,.17,.32,.32,.52,.44,.21,.12,.42,.25,.63,.37,.22,.13,.4,.29,.56,.47,.16,.19,.24,.42,.24,.7s-.13,.53-.37,.75c-.24,.22-.55,.33-.91,.33-.51,0-.89-.22-1.16-.66v.23Z"/></g><g><path class="cls-1" d="M234,126.96v-6.46h.32v1.09c.18-.36,.46-.66,.84-.88s.78-.33,1.19-.33c.66,0,1.21,.23,1.68,.69s.69,1.01,.69,1.66-.23,1.19-.69,1.66-1.02,.69-1.68,.69c-.4,0-.79-.11-1.16-.32s-.67-.51-.87-.87v3.07h-.32Zm.3-4.22c0,.56,.2,1.04,.61,1.45,.41,.41,.89,.61,1.45,.61s1.04-.2,1.44-.61c.4-.41,.6-.89,.6-1.45s-.2-1.05-.6-1.46c-.4-.41-.88-.62-1.44-.62s-1.04,.21-1.45,.62-.61,.9-.61,1.46Z"/><path class="cls-1" d="M234.37,127.02h-.43v-6.58h.43v.94c.18-.29,.44-.53,.76-.71,.39-.22,.8-.34,1.22-.34,.67,0,1.25,.24,1.71,.71s.71,1.04,.71,1.69-.24,1.23-.71,1.7-1.05,.71-1.71,.71c-.41,0-.81-.11-1.19-.33-.32-.18-.59-.43-.78-.72v2.93Zm-.32-.11h.21v-3.24l.1,.19c.19,.35,.48,.64,.84,.85,.37,.21,.75,.32,1.14,.32,.64,0,1.19-.23,1.64-.67s.67-.99,.67-1.62-.23-1.17-.67-1.62-1-.67-1.64-.67c-.4,0-.79,.11-1.16,.32-.37,.21-.64,.5-.82,.85l-.11,.22v-1.28h-.21v6.35Zm2.31-2.05c-.57,0-1.07-.21-1.49-.63-.42-.42-.63-.92-.63-1.49s.21-1.07,.63-1.5c.42-.42,.92-.64,1.49-.64s1.07,.21,1.48,.63c.41,.42,.62,.92,.62,1.5s-.21,1.07-.61,1.49c-.41,.42-.9,.63-1.48,.63Zm0-4.14c-.54,0-1.01,.2-1.41,.6s-.6,.88-.6,1.42,.2,1.01,.6,1.41c.39,.39,.87,.6,1.41,.6s1.01-.2,1.4-.59c.39-.39,.58-.87,.58-1.41s-.2-1.02-.59-1.42c-.39-.4-.86-.6-1.4-.6Z"/></g><g><path class="cls-1" d="M239.95,119.42c-.19,0-.29-.09-.29-.27s.1-.27,.29-.27,.29,.09,.29,.27-.1,.27-.29,.27Zm.16,1.09v4.46h-.32v-4.46h.32Z"/><path class="cls-1" d="M240.16,125.03h-.43v-4.58h.43v4.58Zm-.32-.11h.21v-4.35h-.21v4.35Zm.1-5.45c-.22,0-.34-.12-.34-.32s.12-.32,.34-.32,.34,.12,.34,.32-.12,.32-.34,.32Zm0-.54c-.16,0-.23,.07-.23,.21s.07,.21,.23,.21,.23-.07,.23-.21-.07-.21-.23-.21Z"/></g><g><path class="cls-1" d="M243.03,124.76v.28c-.47,0-.87-.16-1.2-.47-.33-.31-.5-.72-.5-1.21v-4.65h.32v1.81h1.37v.28h-1.37v2.57c0,.4,.13,.74,.4,1,.27,.27,.59,.4,.98,.4Z"/><path class="cls-1" d="M243.08,125.09h-.06c-.48,0-.9-.16-1.24-.49-.34-.32-.51-.74-.51-1.25v-4.71h.43v1.81h1.37v.39h-1.37v2.51c0,.39,.13,.71,.39,.96,.26,.25,.57,.38,.94,.38h.06v.39Zm-1.7-6.33v4.6c0,.47,.16,.87,.48,1.17,.31,.29,.68,.44,1.11,.46v-.17c-.37-.01-.7-.15-.96-.41-.28-.27-.42-.63-.42-1.04v-2.62h1.37v-.17h-1.37v-1.81h-.21Z"/></g><g><path class="cls-1" d="M248.29,120.5v4.47h-.32v-1.11c-.19,.38-.46,.68-.84,.89-.37,.22-.77,.33-1.19,.33-.65,0-1.21-.23-1.67-.69-.46-.46-.7-1.01-.7-1.66s.23-1.19,.7-1.66c.46-.46,1.02-.69,1.67-.69,.42,0,.83,.11,1.22,.34,.39,.23,.66,.52,.81,.89v-1.12h.32Zm-4.4,2.25c0,.56,.2,1.04,.61,1.45,.41,.41,.89,.61,1.45,.61s1.04-.2,1.44-.61c.4-.41,.6-.89,.6-1.45s-.2-1.05-.6-1.46c-.4-.41-.88-.62-1.44-.62s-1.04,.21-1.45,.62c-.41,.41-.61,.9-.61,1.46Z"/><path class="cls-1" d="M245.94,125.14c-.66,0-1.24-.24-1.71-.71-.47-.47-.71-1.04-.71-1.7s.24-1.23,.71-1.7c.47-.47,1.05-.71,1.71-.71,.43,0,.85,.12,1.25,.35,.32,.19,.56,.42,.73,.7v-.94h.43v4.59h-.43v-.95c-.19,.3-.44,.54-.75,.73-.38,.22-.79,.34-1.22,.34Zm0-4.69c-.63,0-1.18,.23-1.63,.68-.45,.45-.68,.99-.68,1.62s.23,1.17,.68,1.62c.45,.45,1,.67,1.63,.67,.41,0,.8-.11,1.17-.32,.36-.21,.63-.51,.81-.87l.11-.22v1.3h.21v-4.36h-.21v1.35l-.11-.26c-.15-.36-.41-.65-.79-.87-.38-.22-.78-.33-1.19-.33Zm.02,4.41c-.57,0-1.07-.21-1.49-.63-.42-.42-.63-.92-.63-1.49s.21-1.07,.63-1.5c.42-.42,.92-.64,1.49-.64s1.07,.21,1.48,.63c.41,.42,.62,.92,.62,1.5s-.21,1.07-.61,1.49c-.41,.42-.9,.63-1.48,.63Zm0-4.14c-.54,0-1.01,.2-1.41,.6-.4,.4-.6,.88-.6,1.42s.2,1.01,.6,1.41c.39,.39,.87,.6,1.41,.6s1.01-.2,1.4-.59c.39-.39,.58-.87,.58-1.41s-.2-1.02-.59-1.42c-.39-.4-.86-.6-1.4-.6Z"/></g><g><path class="cls-1" d="M251.18,124.79v.28c-.47,0-.87-.16-1.2-.47-.33-.31-.5-.72-.5-1.21v-5.87h.32v5.87c0,.4,.13,.74,.4,1,.27,.27,.59,.4,.98,.4Z"/><path class="cls-1" d="M251.24,125.12h-.06c-.48,0-.9-.16-1.24-.49-.34-.32-.51-.74-.51-1.25v-5.92h.43v5.92c0,.39,.13,.71,.39,.96,.26,.25,.57,.38,.94,.38h.06v.39Zm-1.7-7.55v5.81c0,.47,.16,.87,.48,1.17,.31,.29,.68,.44,1.11,.46v-.17c-.37-.01-.7-.15-.96-.41-.28-.27-.42-.63-.42-1.04v-5.81h-.21Z"/></g><g><path class="cls-1" d="M252.27,119.42c-.19,0-.29-.09-.29-.27s.1-.27,.29-.27,.29,.09,.29,.27-.1,.27-.29,.27Zm.16,1.09v4.46h-.32v-4.46h.32Z"/><path class="cls-1" d="M252.48,125.03h-.43v-4.58h.43v4.58Zm-.32-.11h.21v-4.35h-.21v4.35Zm.1-5.45c-.22,0-.34-.12-.34-.32s.12-.32,.34-.32,.34,.12,.34,.32-.12,.32-.34,.32Zm0-.54c-.16,0-.23,.07-.23,.21s.07,.21,.23,.21,.23-.07,.23-.21-.07-.21-.23-.21Z"/></g><g><path class="cls-1" d="M255.35,124.76v.28c-.47,0-.87-.16-1.2-.47-.33-.31-.5-.72-.5-1.21v-4.65h.32v1.81h1.37v.28h-1.37v2.57c0,.4,.13,.74,.4,1,.27,.27,.59,.4,.98,.4Z"/><path class="cls-1" d="M255.4,125.09h-.06c-.48,0-.9-.16-1.24-.49-.34-.32-.51-.74-.51-1.25v-4.71h.43v1.81h1.37v.39h-1.37v2.51c0,.39,.13,.71,.39,.96,.26,.25,.57,.38,.94,.38h.06v.39Zm-1.7-6.33v4.6c0,.47,.16,.87,.48,1.17,.31,.29,.68,.44,1.11,.46v-.17c-.37-.01-.7-.15-.96-.41-.28-.27-.42-.63-.42-1.04v-2.62h1.37v-.17h-1.37v-1.81h-.21Z"/></g><g><path class="cls-1" d="M259.74,120.5h.32v4.34c0,.59-.21,1.09-.62,1.5s-.91,.62-1.51,.62c-.72,0-1.28-.28-1.7-.83l.02-.5c.19,.32,.43,.57,.73,.76,.3,.19,.62,.28,.95,.28,.49,0,.91-.18,1.27-.53,.36-.35,.54-.78,.54-1.28v-.76c-.32,.65-.89,.97-1.7,.97-.55,0-1.02-.19-1.41-.58-.39-.39-.59-.85-.59-1.4v-2.61h.32v2.61c0,.46,.17,.86,.5,1.19,.33,.34,.73,.51,1.19,.51s.85-.17,1.19-.51c.33-.34,.5-.74,.5-1.19v-2.61Z"/><path class="cls-1" d="M257.93,127.01c-.73,0-1.32-.29-1.74-.85v-.02l.02-.71,.1,.17c.18,.31,.42,.56,.71,.74,.29,.18,.6,.27,.92,.27,.47,0,.89-.17,1.23-.52,.35-.34,.52-.76,.52-1.24v-.54c-.35,.54-.9,.82-1.64,.82-.56,0-1.05-.2-1.45-.6-.4-.4-.6-.88-.6-1.44v-2.66h.43v2.66c0,.44,.16,.83,.49,1.15,.32,.33,.71,.49,1.15,.49s.83-.16,1.15-.49c.32-.33,.49-.71,.49-1.15v-2.66h.43v4.39c0,.6-.21,1.12-.63,1.54s-.94,.63-1.55,.63Zm-1.64-.9c.4,.52,.96,.79,1.64,.79,.58,0,1.07-.2,1.47-.6s.6-.89,.6-1.46v-4.28h-.21v2.55c0,.47-.17,.89-.52,1.23-.34,.35-.76,.52-1.23,.52s-.88-.18-1.23-.52c-.34-.35-.52-.76-.52-1.23v-2.55h-.21v2.55c0,.53,.19,.98,.57,1.36,.38,.38,.84,.57,1.37,.57,.79,0,1.33-.31,1.65-.94l.11-.21v.99c0,.51-.19,.95-.55,1.32-.37,.36-.81,.55-1.31,.55-.34,0-.67-.1-.98-.29-.26-.16-.48-.37-.65-.63v.3Z"/></g></g></g><g id="b"><path class="cls-1" d="M99.19,75.36c-4.99,0-9.47-1.17-13.44-3.5-3.97-2.33-7.1-5.52-9.41-9.55-2.3-4.03-3.49-8.58-3.55-13.63V4.9c0-1.47,.46-2.65,1.39-3.55,.93-.9,2.1-1.34,3.5-1.34s2.65,.45,3.55,1.34c.9,.9,1.34,2.08,1.34,3.55V30.82c2.24-2.69,4.94-4.81,8.11-6.38,3.17-1.57,6.64-2.35,10.42-2.35,4.67,0,8.86,1.17,12.58,3.5,3.71,2.34,6.64,5.5,8.78,9.5,2.14,4,3.22,8.53,3.22,13.58s-1.17,9.6-3.5,13.63c-2.34,4.03-5.49,7.22-9.46,9.55-3.97,2.34-8.48,3.5-13.54,3.5Zm0-8.64c3.26,0,6.18-.78,8.74-2.35,2.56-1.57,4.59-3.73,6.1-6.48,1.5-2.75,2.26-5.82,2.26-9.22s-.75-6.53-2.26-9.22c-1.5-2.69-3.54-4.81-6.1-6.38-2.56-1.57-5.47-2.35-8.74-2.35s-6.1,.78-8.69,2.35c-2.59,1.57-4.62,3.7-6.1,6.38-1.47,2.69-2.21,5.76-2.21,9.22s.74,6.47,2.21,9.22c1.47,2.75,3.5,4.91,6.1,6.48,2.59,1.57,5.49,2.35,8.69,2.35Z"/></g><g id="b-2"><path class="cls-1" d="M160.75,75.36c-4.99,0-9.47-1.17-13.44-3.5-3.97-2.33-7.1-5.52-9.41-9.55-2.3-4.03-3.49-8.58-3.55-13.63V4.9c0-1.47,.46-2.65,1.39-3.55C136.66,.45,137.83,0,139.24,0s2.66,.45,3.55,1.34c.9,.9,1.34,2.08,1.34,3.55V30.82c2.24-2.69,4.94-4.81,8.11-6.38,3.17-1.57,6.64-2.35,10.42-2.35,4.67,0,8.86,1.17,12.58,3.5,3.71,2.34,6.64,5.5,8.78,9.5,2.14,4,3.22,8.53,3.22,13.58s-1.17,9.6-3.5,13.63c-2.34,4.03-5.49,7.22-9.46,9.55-3.97,2.34-8.48,3.5-13.54,3.5Zm0-8.64c3.26,0,6.18-.78,8.74-2.35,2.56-1.57,4.59-3.73,6.1-6.48,1.5-2.75,2.26-5.82,2.26-9.22s-.75-6.53-2.26-9.22c-1.5-2.69-3.54-4.81-6.1-6.38-2.56-1.57-5.47-2.35-8.74-2.35s-6.1,.78-8.69,2.35c-2.59,1.57-4.62,3.7-6.1,6.38-1.47,2.69-2.21,5.76-2.21,9.22s.74,6.47,2.21,9.22c1.47,2.75,3.5,4.91,6.1,6.48,2.59,1.57,5.49,2.35,8.69,2.35Z"/></g><g id="n"><path class="cls-2" d="M118.08,64.12c-.81,0-1.49-.29-2.01-.83-.53-.54-.79-1.22-.78-2.03l.31-24.73c.01-.85,.29-1.53,.83-2.04,.54-.51,1.22-.76,2.03-.75,.85,.01,1.53,.28,2.04,.8,.51,.52,.76,1.21,.75,2.06l-.31,24.73c-.01,.81-.28,1.49-.8,2.01-.52,.53-1.21,.79-2.06,.78Zm22.79,.29c-.81-.01-1.48-.29-2.01-.83-.53-.54-.79-1.22-.78-2.03l.17-13.64c.03-2.11-.34-3.83-1.1-5.17-.76-1.34-1.79-2.34-3.1-3.01-1.31-.66-2.81-1.01-4.51-1.03-1.55-.02-2.96,.28-4.23,.89-1.27,.61-2.27,1.44-3.03,2.49s-1.14,2.25-1.15,3.62l-3.49-.04c.03-2.33,.62-4.4,1.77-6.22,1.15-1.82,2.71-3.25,4.68-4.29,1.97-1.05,4.18-1.56,6.62-1.53,2.55,.03,4.83,.61,6.83,1.72,2,1.12,3.57,2.74,4.71,4.86,1.14,2.12,1.69,4.72,1.65,7.78l-.17,13.64c0,.81-.29,1.49-.83,2.01-.54,.53-1.22,.79-2.03,.78Z"/></g></svg>