<?xml version="1.0" encoding="UTF-8"?><svg xmlns="http://www.w3.org/2000/svg" viewBox="0 0 259.89 128.48"><defs><style>.cls-1{fill:#d92d32;}.cls-2{fill:#231f20;}</style></defs><g id="bob_s_n_barley"><g><path d="M9.81,103.24c-1.86,0-3.52-.43-5-1.3-1.48-.87-2.64-2.05-3.5-3.55-.86-1.5-1.3-3.19-1.32-5.07v-16.27c0-.55,.17-.99,.52-1.32,.34-.33,.78-.5,1.3-.5s.99,.17,1.32,.5c.33,.33,.5,.77,.5,1.32v9.63c.83-1,1.84-1.79,3.01-2.37,1.18-.58,2.47-.87,3.87-.87,1.74,0,3.29,.43,4.67,1.3s2.47,2.05,3.26,3.53,1.2,3.17,1.2,5.05-.43,3.57-1.3,5.07c-.87,1.5-2.04,2.68-3.51,3.55-1.48,.87-3.15,1.3-5.03,1.3Zm0-3.21c1.21,0,2.29-.29,3.25-.87,.95-.58,1.71-1.39,2.27-2.41,.56-1.02,.84-2.16,.84-3.43s-.28-2.43-.84-3.42c-.56-1-1.31-1.79-2.27-2.37-.95-.58-2.03-.87-3.25-.87s-2.27,.29-3.23,.87c-.96,.58-1.72,1.37-2.27,2.37-.55,1-.82,2.14-.82,3.42s.27,2.4,.82,3.43c.55,1.02,1.3,1.83,2.27,2.41s2.04,.87,3.23,.87Z"/><path d="M33.93,103.24c-1.93,0-3.63-.42-5.1-1.27-1.48-.84-2.63-2.01-3.48-3.5s-1.27-3.19-1.27-5.12,.42-3.67,1.27-5.16,2-2.65,3.48-3.5c1.47-.84,3.18-1.27,5.1-1.27s3.59,.42,5.07,1.27c1.47,.84,2.63,2.01,3.48,3.5,.84,1.49,1.27,3.21,1.27,5.16s-.42,3.63-1.25,5.12c-.83,1.49-1.99,2.65-3.46,3.5-1.48,.84-3.18,1.27-5.1,1.27Zm0-3.21c1.24,0,2.33-.29,3.28-.86,.95-.57,1.69-1.36,2.23-2.35s.8-2.15,.8-3.46-.27-2.47-.8-3.48-1.28-1.8-2.23-2.37c-.95-.57-2.05-.86-3.28-.86s-2.33,.29-3.28,.86c-.95,.57-1.7,1.36-2.25,2.37-.55,1.01-.82,2.17-.82,3.48s.27,2.46,.82,3.46c.55,1,1.3,1.78,2.25,2.35,.95,.57,2.05,.86,3.28,.86Z"/><path d="M58.98,103.24c-1.86,0-3.52-.43-5-1.3-1.48-.87-2.64-2.05-3.5-3.55-.86-1.5-1.3-3.19-1.32-5.07v-16.27c0-.55,.17-.99,.52-1.32,.34-.33,.78-.5,1.3-.5s.99,.17,1.32,.5c.33,.33,.5,.77,.5,1.32v9.63c.83-1,1.84-1.79,3.01-2.37,1.18-.58,2.47-.87,3.87-.87,1.74,0,3.29,.43,4.67,1.3s2.47,2.05,3.26,3.53,1.2,3.17,1.2,5.05-.43,3.57-1.3,5.07c-.87,1.5-2.04,2.68-3.51,3.55-1.48,.87-3.15,1.3-5.03,1.3Zm0-3.21c1.21,0,2.29-.29,3.25-.87,.95-.58,1.71-1.39,2.27-2.41,.56-1.02,.84-2.16,.84-3.43s-.28-2.43-.84-3.42c-.56-1-1.31-1.79-2.27-2.37-.95-.58-2.03-.87-3.25-.87s-2.27,.29-3.23,.87c-.96,.58-1.72,1.37-2.27,2.37-.55,1-.82,2.14-.82,3.42s.27,2.4,.82,3.43c.55,1.02,1.3,1.83,2.27,2.41s2.04,.87,3.23,.87Z"/><path d="M72.07,85.19c-.38,0-.67-.17-.87-.52s-.22-.71-.05-1.09c.43-.97,.69-1.77,.79-2.39,.09-.62,.1-1.15,.02-1.61-.08-.45-.18-.89-.3-1.3-.12-.42-.18-.89-.18-1.41,0-.62,.21-1.13,.64-1.53s.94-.61,1.53-.61c.74,0,1.31,.31,1.71,.93,.4,.62,.61,1.39,.61,2.32,0,.62-.13,1.33-.39,2.14-.26,.81-.59,1.6-.98,2.37-.39,.77-.81,1.42-1.27,1.93-.45,.51-.87,.77-1.25,.77Z"/><path d="M88.05,103.24c-1.67,0-3.21-.25-4.62-.77-1.42-.51-2.52-1.16-3.3-1.95-.36-.38-.51-.81-.45-1.3,.06-.49,.29-.89,.7-1.2,.48-.38,.95-.54,1.41-.48,.46,.06,.86,.27,1.2,.62,.4,.45,1.05,.87,1.94,1.27,.89,.39,1.88,.59,2.98,.59,1.38,0,2.43-.23,3.16-.68,.73-.45,1.1-1.04,1.12-1.75,.02-.71-.32-1.33-1.02-1.86-.7-.52-1.98-.95-3.84-1.29-2.4-.47-4.15-1.19-5.23-2.14-1.08-.95-1.62-2.12-1.62-3.5,0-1.21,.36-2.22,1.07-3.01,.71-.8,1.63-1.39,2.75-1.78,1.12-.39,2.28-.59,3.5-.59,1.57,0,2.96,.25,4.17,.75,1.21,.5,2.18,1.19,2.89,2.07,.33,.38,.49,.78,.46,1.2-.02,.42-.23,.77-.61,1.05-.38,.26-.83,.34-1.36,.25-.52-.09-.96-.31-1.32-.64-.59-.57-1.24-.96-1.93-1.18-.69-.21-1.49-.32-2.39-.32-1.05,0-1.93,.18-2.66,.54-.73,.36-1.09,.88-1.09,1.57,0,.43,.11,.82,.34,1.16s.67,.65,1.34,.93c.67,.27,1.64,.54,2.93,.8,1.78,.36,3.19,.81,4.23,1.36,1.03,.55,1.78,1.18,2.23,1.91,.45,.73,.68,1.56,.68,2.51,0,1.09-.29,2.08-.87,2.96-.58,.88-1.44,1.58-2.57,2.1-1.13,.52-2.54,.79-4.23,.79Z"/><path class="cls-1" d="M112.6,103.13c-.52,0-.96-.17-1.3-.52-.35-.34-.52-.78-.52-1.3v-15.91c0-.55,.17-.99,.52-1.32,.34-.33,.78-.5,1.3-.5s.99,.17,1.32,.5c.33,.33,.5,.77,.5,1.32v15.91c0,.52-.17,.96-.5,1.3-.33,.34-.77,.52-1.32,.52Zm14.66,0c-.52,0-.96-.17-1.3-.52-.35-.34-.52-.78-.52-1.3v-8.78c0-1.36-.25-2.46-.75-3.32s-1.17-1.49-2.02-1.91c-.84-.42-1.81-.62-2.91-.62-1,0-1.9,.2-2.71,.61-.81,.4-1.45,.95-1.93,1.62-.48,.68-.71,1.46-.71,2.34h-2.25c0-1.5,.36-2.84,1.09-4.01,.73-1.18,1.72-2.11,2.98-2.8,1.26-.69,2.68-1.03,4.25-1.03s3.11,.35,4.41,1.05c1.3,.7,2.32,1.73,3.07,3.09,.75,1.36,1.12,3.02,1.12,5v8.78c0,.52-.17,.96-.52,1.3-.35,.34-.78,.52-1.3,.52Z"/><path d="M155.38,103.24c-1.85,0-3.52-.43-5-1.3s-2.64-2.05-3.5-3.55c-.86-1.5-1.3-3.19-1.32-5.07v-16.27c0-.55,.17-.99,.52-1.32s.78-.5,1.3-.5,.99,.17,1.32,.5,.5,.77,.5,1.32v9.63c.83-1,1.84-1.79,3.01-2.37,1.18-.58,2.47-.87,3.87-.87,1.74,0,3.29,.43,4.67,1.3,1.38,.87,2.47,2.05,3.26,3.53s1.2,3.17,1.2,5.05-.43,3.57-1.3,5.07c-.87,1.5-2.04,2.68-3.51,3.55-1.48,.87-3.15,1.3-5.03,1.3Zm0-3.21c1.21,0,2.3-.29,3.25-.87s1.71-1.39,2.27-2.41c.56-1.02,.84-2.16,.84-3.43s-.28-2.43-.84-3.42c-.56-1-1.31-1.79-2.27-2.37-.95-.58-2.03-.87-3.25-.87s-2.27,.29-3.23,.87c-.96,.58-1.72,1.37-2.27,2.37-.55,1-.82,2.14-.82,3.42s.27,2.4,.82,3.43c.55,1.02,1.3,1.83,2.27,2.41,.96,.58,2.04,.87,3.23,.87Z"/><path d="M178.78,103.24c-1.74,0-3.29-.43-4.67-1.3-1.38-.87-2.47-2.05-3.26-3.53s-1.2-3.17-1.2-5.05,.43-3.57,1.3-5.07c.87-1.5,2.04-2.68,3.53-3.55,1.49-.87,3.16-1.3,5.01-1.3s3.52,.43,5,1.3c1.47,.87,2.65,2.05,3.51,3.55,.87,1.5,1.3,3.19,1.3,5.07h-1.39c0,1.88-.4,3.56-1.2,5.05s-1.88,2.66-3.26,3.53-2.94,1.3-4.67,1.3Zm.71-3.21c1.21,0,2.29-.29,3.25-.87,.95-.58,1.7-1.38,2.25-2.39,.55-1.01,.82-2.15,.82-3.41s-.27-2.43-.82-3.44c-.55-1.01-1.3-1.81-2.25-2.39-.95-.58-2.03-.87-3.25-.87s-2.27,.29-3.23,.87c-.96,.58-1.72,1.38-2.28,2.39-.56,1.01-.84,2.16-.84,3.44s.28,2.4,.84,3.41c.56,1.01,1.32,1.81,2.28,2.39,.96,.58,2.04,.87,3.23,.87Zm7.99,3.1c-.52,0-.96-.17-1.3-.52s-.52-.78-.52-1.3v-5.46l.68-3.78,2.96,1.28v7.96c0,.52-.17,.96-.52,1.3s-.78,.52-1.3,.52Z"/><path d="M196.52,103.1c-.57,0-1.01-.15-1.32-.45-.31-.3-.46-.74-.46-1.34v-15.95c0-.57,.15-1.01,.46-1.32s.75-.46,1.32-.46,1.04,.15,1.34,.45c.3,.3,.45,.74,.45,1.34v15.95c0,.57-.15,1.01-.45,1.32-.3,.31-.74,.46-1.34,.46Zm-.04-12.2c0-1.43,.35-2.71,1.05-3.84,.7-1.13,1.65-2.03,2.84-2.69,1.19-.67,2.5-1,3.92-1s2.49,.23,3.19,.7c.7,.46,.97,1.02,.8,1.66-.07,.33-.21,.59-.41,.77s-.43,.29-.7,.34-.55,.04-.86-.04c-1.52-.31-2.89-.33-4.1-.07-1.21,.26-2.17,.75-2.87,1.46-.7,.71-1.05,1.62-1.05,2.71h-1.82Z"/><path d="M216.71,103.1c-1.05,0-1.97-.29-2.78-.86-.81-.57-1.44-1.35-1.89-2.34-.45-.99-.68-2.12-.68-3.41v-19.48c0-.52,.17-.95,.5-1.28s.76-.5,1.28-.5,.95,.17,1.28,.5,.5,.76,.5,1.28v19.48c0,.88,.17,1.61,.5,2.18,.33,.57,.76,.86,1.29,.86h.89c.48,0,.86,.17,1.16,.5,.3,.33,.45,.76,.45,1.28s-.23,.95-.68,1.29c-.45,.33-1.03,.5-1.75,.5h-.07Z"/><path d="M230.87,103.24c-1.97,0-3.73-.42-5.26-1.27-1.53-.84-2.74-2.01-3.6-3.5-.87-1.49-1.3-3.19-1.3-5.12s.41-3.67,1.23-5.16c.82-1.49,1.96-2.65,3.41-3.5,1.45-.84,3.12-1.27,5-1.27s3.45,.41,4.78,1.23c1.33,.82,2.35,1.95,3.05,3.39,.7,1.44,1.05,3.1,1.05,4.98,0,.45-.16,.83-.46,1.12-.31,.3-.7,.45-1.18,.45h-14.38v-2.85h14.27l-1.46,1c-.02-1.19-.26-2.25-.71-3.19-.45-.94-1.09-1.68-1.93-2.23-.83-.55-1.84-.82-3.03-.82-1.36,0-2.52,.3-3.48,.89-.96,.59-1.69,1.41-2.19,2.44-.5,1.04-.75,2.21-.75,3.51s.3,2.47,.89,3.5c.59,1.02,1.42,1.83,2.46,2.43,1.05,.59,2.25,.89,3.6,.89,.74,0,1.49-.14,2.27-.41,.77-.27,1.4-.59,1.87-.95,.36-.26,.74-.4,1.16-.41s.78,.11,1.09,.37c.4,.36,.62,.75,.64,1.18,.02,.43-.17,.8-.57,1.11-.81,.64-1.81,1.17-3.02,1.57s-2.35,.61-3.44,.61Z"/><path d="M251.57,102.31c-.45,.19-.87,.21-1.27,.05-.39-.15-.71-.46-.95-.91l-8.17-15.52c-.24-.45-.27-.89-.09-1.3,.18-.42,.49-.72,.95-.91,.45-.19,.88-.21,1.28-.05,.4,.15,.71,.46,.93,.91l7.81,15.52c.24,.45,.33,.89,.27,1.3s-.32,.72-.77,.91Zm-4.21,9.35c-.24,0-.52-.07-.86-.21-1.05-.48-1.33-1.23-.86-2.25l10.88-24.58c.48-1,1.22-1.28,2.25-.86,1.07,.45,1.37,1.2,.89,2.25l-10.92,24.55c-.29,.74-.75,1.11-1.39,1.11Z"/></g></g><g id="Hotel___Restaurant"><g><g><path class="cls-2" d="M160.5,125.69v-10.16h.43v5.56c.24-.5,.63-.89,1.15-1.19s1.06-.45,1.62-.45c.89,0,1.66,.31,2.28,.94s.94,1.38,.94,2.26-.31,1.63-.94,2.26-1.39,.94-2.28,.94c-.54,0-1.07-.15-1.59-.44s-.91-.69-1.18-1.19v1.48h-.43Zm.41-3.04c0,.76,.28,1.42,.83,1.97,.56,.56,1.21,.83,1.98,.83s1.42-.28,1.96-.83c.54-.56,.81-1.21,.81-1.98s-.27-1.43-.82-1.99c-.55-.56-1.2-.84-1.96-.84s-1.42,.28-1.97,.85-.83,1.23-.83,1.99Z"/><path class="cls-2" d="M163.7,125.91c-.55,0-1.1-.15-1.62-.45-.44-.25-.8-.58-1.07-.98v1.28h-.59v-10.32h.59v5.34c.25-.39,.59-.72,1.03-.97,.53-.3,1.09-.46,1.66-.46,.91,0,1.7,.32,2.34,.96s.96,1.42,.96,2.31-.32,1.67-.96,2.31-1.43,.96-2.34,.96Zm-2.84-2l.14,.26c.26,.48,.65,.87,1.15,1.16,.5,.29,1.02,.43,1.55,.43,.87,0,1.62-.31,2.23-.92s.92-1.35,.92-2.2-.31-1.59-.92-2.2-1.36-.92-2.23-.92c-.54,0-1.08,.15-1.58,.44-.5,.29-.88,.68-1.11,1.16l-.14,.29v-5.81h-.28v10.01h.28v-1.7Zm2.86,1.62c-.78,0-1.46-.29-2.03-.86-.57-.57-.86-1.25-.86-2.03s.29-1.46,.86-2.04c.57-.58,1.25-.87,2.03-.87s1.45,.29,2.01,.86c.56,.57,.84,1.26,.84,2.04s-.28,1.46-.83,2.03c-.55,.57-1.23,.86-2.01,.86Zm0-5.64c-.73,0-1.38,.28-1.92,.82s-.81,1.2-.81,1.93,.27,1.38,.81,1.92c.54,.54,1.19,.81,1.92,.81s1.38-.27,1.9-.81c.53-.54,.79-1.19,.79-1.93s-.27-1.39-.8-1.93c-.53-.54-1.17-.82-1.9-.82Z"/></g><g><path class="cls-2" d="M173.11,119.59h.43v5.91c0,.8-.28,1.49-.84,2.05s-1.25,.84-2.06,.84c-.98,0-1.75-.37-2.32-1.12l.03-.68c.25,.43,.58,.78,1,1.04,.41,.26,.84,.39,1.29,.39,.67,0,1.25-.24,1.73-.73,.49-.48,.73-1.06,.73-1.74v-1.03c-.44,.89-1.22,1.33-2.32,1.33-.75,0-1.39-.26-1.92-.79-.53-.53-.8-1.16-.8-1.9v-3.55h.43v3.55c0,.62,.23,1.17,.68,1.63,.46,.46,1,.69,1.62,.69s1.16-.23,1.62-.69c.46-.46,.68-1,.68-1.63v-3.55Z"/><path class="cls-2" d="M170.65,128.46c-1,0-1.8-.39-2.38-1.15l-.02-.02,.04-.97,.13,.23c.25,.42,.57,.76,.97,1.01,.4,.25,.82,.37,1.25,.37,.64,0,1.21-.24,1.68-.7,.47-.47,.71-1.03,.71-1.69v-.74c-.47,.74-1.22,1.11-2.24,1.11-.77,0-1.43-.27-1.98-.81-.55-.54-.82-1.2-.82-1.96v-3.63h.59v3.63c0,.6,.22,1.13,.66,1.57,.44,.44,.97,.67,1.57,.67s1.13-.22,1.57-.67c.44-.44,.66-.97,.66-1.57v-3.63h.59v5.98c0,.82-.29,1.53-.86,2.1s-1.28,.86-2.11,.86Zm-2.24-1.23c.55,.71,1.3,1.07,2.24,1.07,.79,0,1.46-.28,2.01-.82s.82-1.21,.82-1.99v-5.83h-.28v3.47c0,.64-.24,1.21-.71,1.68-.47,.47-1.03,.71-1.67,.71s-1.2-.24-1.67-.71c-.47-.47-.71-1.04-.71-1.68v-3.47h-.28v3.47c0,.72,.26,1.34,.78,1.85,.52,.51,1.14,.77,1.87,.77,1.08,0,1.82-.42,2.25-1.29l.14-.29v1.35c0,.7-.25,1.3-.75,1.8-.5,.5-1.1,.75-1.79,.75-.46,0-.91-.13-1.33-.4-.35-.22-.65-.51-.89-.85l-.02,.41Z"/></g><g><path class="cls-2" d="M182.83,125.85h-.12c-.86,0-1.61-.32-2.24-.97-.64-.65-.96-1.4-.96-2.26s.32-1.6,.95-2.23c.63-.63,1.41-.94,2.34-.94s1.73,.37,2.4,1.11l-4.26,4.2c.59,.47,1.15,.7,1.69,.7s1.03-.12,1.46-.37c.43-.25,.78-.58,1.06-1v.69c-.64,.7-1.42,1.06-2.33,1.06Zm-.14-6.02c-.72,0-1.36,.28-1.91,.83-.56,.56-.83,1.19-.83,1.92s.24,1.36,.72,1.9l3.94-3.92c-.56-.49-1.2-.73-1.92-.73Z"/><path class="cls-2" d="M182.83,125.93h-.12c-.88,0-1.65-.33-2.3-.99-.65-.66-.98-1.43-.98-2.31s.33-1.64,.97-2.28c.64-.64,1.45-.96,2.4-.96s1.77,.38,2.46,1.14l.05,.05-4.25,4.19c.55,.42,1.08,.64,1.58,.64,.53,0,1-.12,1.42-.36,.42-.24,.77-.57,1.04-.97l.14-.21v.97l-.02,.02c-.65,.72-1.46,1.08-2.39,1.08Zm-.03-6.4c-.91,0-1.68,.31-2.29,.92-.61,.61-.93,1.34-.93,2.18s.31,1.57,.93,2.2c.62,.63,1.36,.95,2.19,.95h.12c.88,0,1.64-.34,2.26-1.01v-.43c-.26,.34-.58,.61-.95,.83-.44,.25-.94,.38-1.5,.38s-1.14-.24-1.74-.72l-.07-.05,4.26-4.21c-.64-.69-1.41-1.03-2.29-1.03Zm-2.14,5.06l-.05-.06c-.49-.55-.74-1.21-.74-1.95s.29-1.4,.86-1.97c.57-.57,1.23-.86,1.96-.86s1.4,.25,1.97,.75l.06,.05-4.06,4.03Zm2.03-4.68c-.69,0-1.32,.27-1.86,.81-.54,.54-.81,1.16-.81,1.86s.22,1.27,.65,1.79l3.83-3.8c-.53-.44-1.14-.66-1.81-.66Z"/></g><g><path class="cls-2" d="M189.44,125.87h-.12c-.87,0-1.61-.32-2.24-.96-.62-.64-.94-1.39-.94-2.26s.32-1.61,.95-2.24c.63-.63,1.41-.94,2.33-.94s1.71,.35,2.36,1.04v.69c-.28-.42-.63-.75-1.06-.99s-.88-.37-1.35-.37c-.75,0-1.4,.28-1.96,.83s-.83,1.22-.83,1.99,.28,1.43,.83,1.99c.56,.56,1.21,.83,1.96,.83,.47,0,.92-.12,1.35-.37,.43-.24,.78-.58,1.06-1v.7c-.63,.7-1.41,1.04-2.34,1.04Z"/><path class="cls-2" d="M189.44,125.94h-.12c-.88,0-1.66-.33-2.29-.99-.63-.65-.96-1.43-.96-2.31s.33-1.65,.97-2.29c.64-.64,1.45-.96,2.38-.96s1.75,.36,2.41,1.07l.02,.02v.97l-.14-.21c-.27-.4-.62-.73-1.04-.97-.42-.24-.86-.36-1.31-.36-.73,0-1.37,.27-1.9,.81s-.81,1.19-.81,1.93,.27,1.39,.81,1.93c.54,.54,1.18,.81,1.9,.81,.45,0,.9-.12,1.31-.36,.42-.24,.77-.57,1.04-.98l.14-.21v.99l-.02,.02c-.64,.71-1.45,1.07-2.4,1.07Zm-.01-6.4c-.9,0-1.66,.31-2.28,.92-.61,.61-.93,1.34-.93,2.18s.31,1.58,.91,2.2c.61,.62,1.34,.94,2.18,.94h.12c.89,0,1.66-.34,2.27-1v-.44c-.26,.34-.58,.62-.95,.83-.44,.25-.91,.38-1.39,.38-.77,0-1.44-.29-2.01-.86-.57-.57-.86-1.25-.86-2.04s.29-1.47,.86-2.04,1.24-.86,2.01-.86c.48,0,.95,.13,1.39,.38,.37,.21,.69,.49,.95,.82v-.43c-.63-.66-1.4-1-2.28-1Z"/></g><g><path class="cls-2" d="M193.54,124.87c-.62-.65-.94-1.4-.94-2.26s.32-1.6,.95-2.23c.63-.63,1.39-.94,2.28-.94s1.65,.31,2.28,.94c.63,.63,.94,1.37,.94,2.24s-.31,1.61-.92,2.26c-.61,.64-1.36,.96-2.24,.96h-.12c-.87,0-1.61-.32-2.24-.97Zm5.08-2.22c0-.76-.27-1.43-.82-1.99-.55-.56-1.2-.84-1.96-.84s-1.42,.28-1.97,.85c-.56,.56-.83,1.23-.83,1.99s.28,1.42,.83,1.97c.56,.56,1.21,.83,1.98,.83s1.42-.28,1.96-.83c.54-.56,.81-1.21,.81-1.98Z"/><path class="cls-2" d="M195.89,125.91h-.12c-.88,0-1.66-.33-2.29-.99-.63-.66-.96-1.43-.96-2.31s.33-1.64,.97-2.28c.64-.64,1.43-.96,2.34-.96s1.69,.32,2.33,.96,.96,1.41,.96,2.29-.32,1.66-.94,2.31c-.63,.65-1.4,.99-2.29,.99Zm-.06-6.4c-.86,0-1.62,.31-2.23,.92-.61,.61-.93,1.34-.93,2.18s.31,1.58,.91,2.2c.61,.63,1.34,.95,2.18,.95h.12c.85,0,1.58-.32,2.18-.94,.6-.62,.9-1.37,.9-2.2s-.31-1.57-.92-2.18-1.36-.92-2.22-.92Zm.01,6.02c-.78,0-1.46-.29-2.03-.86-.57-.57-.86-1.25-.86-2.03s.29-1.46,.86-2.04c.57-.58,1.25-.87,2.03-.87s1.45,.29,2.01,.86c.56,.57,.84,1.26,.84,2.04s-.28,1.46-.83,2.03c-.55,.57-1.23,.86-2.01,.86Zm0-5.64c-.73,0-1.38,.28-1.92,.82-.54,.55-.81,1.2-.81,1.93s.27,1.38,.81,1.92c.54,.54,1.19,.81,1.92,.81s1.38-.27,1.9-.81c.53-.54,.79-1.19,.79-1.93s-.27-1.39-.8-1.93c-.53-.54-1.17-.82-1.9-.82Z"/></g><g><path class="cls-2" d="M205.52,125.69h-.43v-10.15h.43v5.23c.45-.89,1.23-1.33,2.34-1.33,.76,0,1.4,.26,1.92,.79,.52,.52,.78,1.16,.78,1.91v3.55h-.43v-3.55c0-.63-.22-1.18-.66-1.63-.44-.46-.98-.68-1.6-.68s-1.17,.23-1.64,.69c-.47,.46-.7,1-.7,1.63v3.55Z"/><path class="cls-2" d="M210.63,125.77h-.59v-3.63c0-.61-.22-1.14-.64-1.58-.43-.44-.95-.66-1.54-.66s-1.13,.23-1.59,.67c-.45,.44-.68,.97-.68,1.57v3.63h-.59v-10.3h.59v5.02c.48-.74,1.24-1.12,2.27-1.12,.78,0,1.44,.27,1.97,.81,.53,.54,.8,1.2,.8,1.96v3.63Zm-.43-.15h.28v-3.47c0-.73-.25-1.35-.76-1.86-.5-.51-1.13-.76-1.86-.76-1.08,0-1.84,.43-2.28,1.29l-.14,.28v-5.47h-.28v10h.28v-3.47c0-.64,.24-1.21,.73-1.68,.48-.47,1.05-.71,1.69-.71s1.2,.24,1.65,.71c.45,.47,.69,1.04,.69,1.69v3.47Z"/></g><g><path class="cls-2" d="M212.64,124.87c-.62-.65-.94-1.4-.94-2.26s.32-1.6,.95-2.23c.63-.63,1.39-.94,2.28-.94s1.65,.31,2.28,.94,.94,1.37,.94,2.24-.31,1.61-.92,2.26c-.61,.64-1.36,.96-2.24,.96h-.12c-.87,0-1.61-.32-2.24-.97Zm5.08-2.22c0-.76-.27-1.43-.82-1.99-.55-.56-1.2-.84-1.96-.84s-1.42,.28-1.97,.85c-.56,.56-.83,1.23-.83,1.99s.28,1.42,.83,1.97c.56,.56,1.21,.83,1.98,.83s1.42-.28,1.96-.83c.54-.56,.81-1.21,.81-1.98Z"/><path class="cls-2" d="M215,125.91h-.12c-.88,0-1.66-.33-2.29-.99-.63-.66-.96-1.43-.96-2.31s.33-1.64,.97-2.28c.64-.64,1.43-.96,2.34-.96s1.69,.32,2.33,.96,.96,1.41,.96,2.29-.32,1.66-.94,2.31c-.63,.65-1.4,.99-2.29,.99Zm-.06-6.4c-.86,0-1.62,.31-2.23,.92-.61,.61-.93,1.34-.93,2.18s.31,1.58,.91,2.2c.61,.63,1.34,.95,2.18,.95h.12c.85,0,1.58-.32,2.18-.94,.6-.62,.9-1.37,.9-2.2s-.31-1.57-.92-2.18-1.36-.92-2.22-.92Zm.01,6.02c-.78,0-1.46-.29-2.03-.86-.57-.57-.86-1.25-.86-2.03s.29-1.46,.86-2.04c.57-.58,1.25-.87,2.03-.87s1.45,.29,2.01,.86c.56,.57,.84,1.26,.84,2.04s-.28,1.46-.83,2.03c-.55,.57-1.23,.86-2.01,.86Zm0-5.64c-.73,0-1.38,.28-1.92,.82-.54,.55-.81,1.2-.81,1.93s.27,1.38,.81,1.92c.54,.54,1.19,.81,1.92,.81s1.38-.27,1.9-.81c.53-.54,.79-1.19,.79-1.93s-.27-1.39-.8-1.93c-.53-.54-1.17-.82-1.9-.82Z"/></g><g><path class="cls-2" d="M220.78,119.81c-.23,0-.44,.08-.62,.23-.18,.15-.27,.34-.27,.57s.1,.43,.31,.62c.2,.19,.45,.36,.73,.52,.28,.16,.57,.33,.86,.51,.29,.18,.54,.41,.74,.69,.2,.28,.3,.6,.3,.96,0,.53-.2,.99-.6,1.36s-.89,.56-1.46,.56c-.36,0-.7-.08-1.01-.24-.31-.16-.54-.37-.68-.63v-.65c.34,.76,.89,1.14,1.65,1.14,.47,0,.86-.14,1.19-.43,.32-.29,.48-.61,.48-.97s-.1-.66-.31-.9c-.2-.24-.45-.45-.74-.62s-.58-.34-.86-.51c-.28-.17-.53-.37-.73-.61s-.3-.52-.3-.84,.13-.59,.39-.81c.26-.22,.59-.33,1-.33s.75,.16,1.04,.47v.56c-.29-.43-.66-.65-1.1-.65Z"/><path class="cls-2" d="M220.76,125.91c-.37,0-.72-.08-1.04-.25-.32-.16-.57-.39-.72-.66v-1.04l.14,.32c.33,.74,.85,1.09,1.58,1.09,.45,0,.83-.14,1.13-.41,.3-.27,.46-.58,.46-.91s-.1-.62-.29-.85c-.2-.24-.44-.44-.72-.61-.29-.17-.58-.34-.86-.51-.29-.17-.54-.38-.75-.63-.21-.25-.32-.55-.32-.89s.14-.64,.41-.87c.27-.23,.62-.35,1.05-.35s.8,.17,1.1,.5l.02,.02v.84l-.14-.21c-.28-.41-.62-.62-1.03-.62-.22,0-.41,.07-.57,.21-.16,.14-.24,.31-.24,.51s.09,.39,.28,.57c.2,.18,.44,.36,.72,.51,.28,.16,.57,.33,.86,.51,.3,.18,.55,.42,.76,.71,.21,.29,.32,.63,.32,1.01,0,.55-.21,1.03-.63,1.42-.41,.39-.92,.58-1.51,.58Zm-1.62-.96c.14,.24,.35,.44,.64,.58,.3,.15,.63,.23,.98,.23,.55,0,1.02-.18,1.4-.54,.38-.36,.58-.8,.58-1.31,0-.34-.1-.65-.29-.92-.2-.27-.44-.5-.72-.67-.29-.18-.58-.35-.86-.51-.29-.16-.54-.34-.75-.53-.22-.2-.33-.43-.33-.68s.1-.46,.3-.63c.19-.16,.42-.25,.67-.25,.4,0,.74,.17,1.02,.5v-.3c-.27-.29-.59-.43-.97-.43s-.7,.11-.95,.31c-.24,.21-.36,.46-.36,.76s.1,.57,.29,.79c.2,.23,.44,.43,.71,.59,.28,.17,.57,.34,.86,.51,.3,.18,.55,.39,.76,.64,.21,.26,.32,.58,.32,.95s-.17,.72-.51,1.03c-.33,.3-.75,.45-1.24,.45-.69,0-1.22-.3-1.58-.9v.32Z"/></g><g><path class="cls-2" d="M224.11,128.4v-8.81h.43v1.49c.24-.5,.63-.89,1.15-1.19s1.06-.45,1.62-.45c.89,0,1.66,.31,2.28,.94s.94,1.38,.94,2.26-.31,1.63-.94,2.26c-.63,.63-1.39,.94-2.28,.94-.54,0-1.07-.15-1.59-.44s-.91-.69-1.18-1.19v4.19h-.43Zm.41-5.75c0,.76,.28,1.42,.83,1.97,.56,.56,1.21,.83,1.98,.83s1.42-.28,1.96-.83c.54-.56,.81-1.21,.81-1.98s-.27-1.43-.82-1.99c-.55-.56-1.2-.84-1.96-.84s-1.42,.28-1.97,.85-.83,1.23-.83,1.99Z"/><path class="cls-2" d="M224.62,128.48h-.59v-8.96h.59v1.28c.25-.39,.59-.72,1.03-.97,.53-.3,1.09-.46,1.66-.46,.91,0,1.7,.32,2.34,.96,.64,.64,.96,1.42,.96,2.31s-.32,1.67-.96,2.31-1.43,.96-2.34,.96c-.55,0-1.1-.15-1.62-.45-.44-.25-.8-.58-1.07-.98v3.99Zm-.43-.15h.28v-4.41l.14,.26c.26,.48,.65,.87,1.15,1.16,.5,.29,1.02,.43,1.55,.43,.87,0,1.62-.31,2.23-.92s.92-1.35,.92-2.2-.31-1.59-.92-2.2-1.36-.92-2.23-.92c-.54,0-1.08,.15-1.58,.44-.5,.29-.88,.68-1.11,1.16l-.14,.29v-1.74h-.28v8.66Zm3.14-2.79c-.78,0-1.46-.29-2.03-.86-.57-.57-.86-1.25-.86-2.03s.29-1.46,.86-2.04c.57-.58,1.25-.87,2.03-.87s1.45,.29,2.01,.86c.56,.57,.84,1.26,.84,2.04s-.28,1.46-.83,2.03c-.55,.57-1.23,.86-2.01,.86Zm0-5.64c-.73,0-1.38,.28-1.92,.82-.54,.55-.81,1.2-.81,1.93s.27,1.38,.81,1.92c.54,.54,1.19,.81,1.92,.81s1.38-.27,1.9-.81c.53-.54,.79-1.19,.79-1.93s-.27-1.39-.8-1.93c-.53-.54-1.17-.82-1.9-.82Z"/></g><g><path class="cls-2" d="M232.21,118.11c-.26,0-.39-.12-.39-.37s.13-.37,.39-.37,.39,.12,.39,.37-.13,.37-.39,.37Zm.22,1.49v6.08h-.43v-6.08h.43Z"/><path class="cls-2" d="M232.51,125.77h-.59v-6.24h.59v6.24Zm-.43-.15h.28v-5.93h-.28v5.93Zm.14-7.42c-.3,0-.47-.16-.47-.44s.17-.44,.47-.44,.47,.16,.47,.44-.17,.44-.47,.44Zm0-.73c-.22,0-.32,.09-.32,.29s.1,.29,.32,.29,.32-.09,.32-.29-.1-.29-.32-.29Z"/></g><g><path class="cls-2" d="M236.41,125.39v.38c-.64,0-1.19-.21-1.64-.64-.45-.43-.68-.98-.68-1.65v-6.34h.43v2.47h1.87v.38h-1.87v3.5c0,.55,.18,1.01,.55,1.37,.37,.36,.81,.54,1.33,.54Z"/><path class="cls-2" d="M236.49,125.85h-.08c-.66,0-1.23-.22-1.69-.66-.47-.44-.7-1.01-.7-1.7v-6.42h.59v2.47h1.87v.53h-1.87v3.42c0,.53,.18,.97,.53,1.31,.35,.35,.78,.52,1.28,.52h.08v.53Zm-2.32-8.63v6.27c0,.64,.22,1.18,.65,1.59,.42,.4,.93,.61,1.51,.62v-.23c-.51-.02-.95-.21-1.31-.56-.38-.37-.57-.85-.57-1.42v-3.57h1.87v-.23h-1.87v-2.47h-.28Z"/></g><g><path class="cls-2" d="M243.58,119.59v6.1h-.43v-1.52c-.25,.51-.63,.92-1.14,1.22-.51,.3-1.05,.45-1.63,.45-.89,0-1.64-.31-2.28-.94-.63-.63-.95-1.38-.95-2.26s.32-1.63,.95-2.26c.63-.63,1.39-.94,2.28-.94,.58,0,1.13,.15,1.66,.46,.53,.31,.9,.71,1.1,1.22v-1.53h.43Zm-5.99,3.06c0,.76,.28,1.42,.83,1.97,.56,.56,1.21,.83,1.98,.83s1.42-.28,1.96-.83c.54-.56,.81-1.21,.81-1.98s-.27-1.43-.82-1.99c-.55-.56-1.2-.84-1.96-.84s-1.42,.28-1.97,.85c-.56,.56-.83,1.23-.83,1.99Z"/><path class="cls-2" d="M240.38,125.91c-.9,0-1.69-.32-2.33-.96-.64-.64-.97-1.42-.97-2.31s.33-1.67,.97-2.31c.64-.64,1.43-.96,2.33-.96,.59,0,1.16,.16,1.7,.47,.43,.25,.77,.57,.99,.96v-1.28h.59v6.25h-.59v-1.3c-.25,.41-.6,.74-1.02,.99-.52,.3-1.08,.46-1.67,.46Zm0-6.4c-.86,0-1.61,.31-2.22,.92-.61,.61-.93,1.35-.93,2.2s.31,1.59,.93,2.2c.61,.61,1.36,.92,2.22,.92,.56,0,1.1-.15,1.59-.44,.49-.29,.86-.69,1.11-1.19l.14-.29v1.77h.28v-5.95h-.28v1.84l-.15-.36c-.2-.49-.56-.89-1.07-1.18-.51-.3-1.06-.45-1.62-.45Zm.02,6.02c-.78,0-1.46-.29-2.03-.86-.57-.57-.86-1.25-.86-2.03s.29-1.46,.86-2.04c.57-.58,1.25-.87,2.03-.87s1.45,.29,2.01,.86c.56,.57,.84,1.26,.84,2.04s-.28,1.46-.83,2.03c-.55,.57-1.23,.86-2.01,.86Zm0-5.64c-.73,0-1.38,.28-1.92,.82-.54,.55-.81,1.2-.81,1.93s.27,1.38,.81,1.92c.54,.54,1.19,.81,1.92,.81s1.38-.27,1.9-.81c.53-.54,.79-1.19,.79-1.93s-.27-1.39-.8-1.93c-.53-.54-1.17-.82-1.9-.82Z"/></g><g><path class="cls-2" d="M247.53,125.43v.38c-.64,0-1.19-.21-1.64-.64-.45-.43-.68-.98-.68-1.65v-8h.43v8c0,.55,.18,1.01,.55,1.37,.37,.36,.81,.54,1.33,.54Z"/><path class="cls-2" d="M247.6,125.89h-.08c-.66,0-1.23-.22-1.69-.66-.47-.44-.7-1.01-.7-1.7v-8.07h.59v8.07c0,.53,.18,.97,.53,1.31,.35,.35,.78,.52,1.28,.52h.08v.53Zm-2.32-10.29v7.92c0,.64,.22,1.18,.65,1.59,.42,.4,.93,.61,1.51,.62v-.23c-.51-.02-.95-.21-1.31-.56-.38-.37-.57-.85-.57-1.42v-7.92h-.28Z"/></g><g><path class="cls-2" d="M249,118.11c-.26,0-.39-.12-.39-.37s.13-.37,.39-.37,.39,.12,.39,.37-.13,.37-.39,.37Zm.22,1.49v6.08h-.43v-6.08h.43Z"/><path class="cls-2" d="M249.3,125.77h-.59v-6.24h.59v6.24Zm-.43-.15h.28v-5.93h-.28v5.93Zm.14-7.42c-.3,0-.47-.16-.47-.44s.17-.44,.47-.44,.47,.16,.47,.44-.17,.44-.47,.44Zm0-.73c-.22,0-.32,.09-.32,.29s.1,.29,.32,.29,.32-.09,.32-.29-.1-.29-.32-.29Z"/></g><g><path class="cls-2" d="M253.2,125.39v.38c-.64,0-1.19-.21-1.64-.64-.45-.43-.68-.98-.68-1.65v-6.34h.43v2.47h1.87v.38h-1.87v3.5c0,.55,.18,1.01,.55,1.37,.37,.36,.81,.54,1.33,.54Z"/><path class="cls-2" d="M253.28,125.85h-.08c-.66,0-1.23-.22-1.69-.66-.47-.44-.7-1.01-.7-1.7v-6.42h.59v2.47h1.87v.53h-1.87v3.42c0,.53,.18,.97,.53,1.31,.35,.35,.78,.52,1.28,.52h.08v.53Zm-2.32-8.63v6.27c0,.64,.22,1.18,.65,1.59,.42,.4,.93,.61,1.51,.62v-.23c-.51-.02-.95-.21-1.31-.56-.38-.37-.57-.85-.57-1.42v-3.57h1.87v-.23h-1.87v-2.47h-.28Z"/></g><g><path class="cls-2" d="M259.19,119.59h.43v5.91c0,.8-.28,1.49-.84,2.05s-1.25,.84-2.06,.84c-.98,0-1.75-.37-2.32-1.12l.03-.68c.25,.43,.58,.78,1,1.04,.41,.26,.84,.39,1.29,.39,.67,0,1.25-.24,1.73-.73,.49-.48,.73-1.06,.73-1.74v-1.03c-.44,.89-1.22,1.33-2.32,1.33-.75,0-1.39-.26-1.92-.79-.53-.53-.8-1.16-.8-1.9v-3.55h.43v3.55c0,.62,.23,1.17,.68,1.63,.46,.46,1,.69,1.62,.69s1.16-.23,1.62-.69c.46-.46,.68-1,.68-1.63v-3.55Z"/><path class="cls-2" d="M256.73,128.46c-1,0-1.8-.39-2.38-1.15l-.02-.02,.04-.97,.13,.23c.25,.42,.57,.76,.97,1.01,.4,.25,.82,.37,1.25,.37,.64,0,1.21-.24,1.68-.7,.47-.47,.71-1.03,.71-1.69v-.74c-.47,.74-1.22,1.11-2.24,1.11-.77,0-1.43-.27-1.98-.81-.55-.54-.82-1.2-.82-1.96v-3.63h.59v3.63c0,.6,.22,1.13,.66,1.57,.44,.44,.97,.67,1.57,.67s1.13-.22,1.57-.67c.44-.44,.66-.97,.66-1.57v-3.63h.59v5.98c0,.82-.29,1.53-.86,2.1s-1.28,.86-2.11,.86Zm-2.24-1.23c.55,.71,1.3,1.07,2.24,1.07,.79,0,1.46-.28,2.01-.82s.82-1.21,.82-1.99v-5.83h-.28v3.47c0,.64-.24,1.21-.71,1.68-.47,.47-1.03,.71-1.67,.71s-1.2-.24-1.67-.71c-.47-.47-.71-1.04-.71-1.68v-3.47h-.28v3.47c0,.72,.26,1.34,.78,1.85,.52,.51,1.14,.77,1.87,.77,1.08,0,1.82-.42,2.25-1.29l.14-.29v1.35c0,.7-.25,1.3-.75,1.8-.5,.5-1.1,.75-1.79,.75-.46,0-.91-.13-1.33-.4-.35-.22-.65-.51-.89-.85l-.02,.41Z"/></g></g></g><g id="b"><path d="M99.19,75.36c-4.99,0-9.47-1.17-13.44-3.5-3.97-2.33-7.1-5.52-9.41-9.55-2.3-4.03-3.49-8.58-3.55-13.63V4.9c0-1.47,.46-2.65,1.39-3.55,.93-.9,2.1-1.34,3.5-1.34s2.65,.45,3.55,1.34c.9,.9,1.34,2.08,1.34,3.55V30.82c2.24-2.69,4.94-4.81,8.11-6.38,3.17-1.57,6.64-2.35,10.42-2.35,4.67,0,8.86,1.17,12.58,3.5,3.71,2.34,6.64,5.5,8.78,9.5,2.14,4,3.22,8.53,3.22,13.58s-1.17,9.6-3.5,13.63c-2.34,4.03-5.49,7.22-9.46,9.55-3.97,2.34-8.48,3.5-13.54,3.5Zm0-8.64c3.26,0,6.18-.78,8.74-2.35,2.56-1.57,4.59-3.73,6.1-6.48,1.5-2.75,2.26-5.82,2.26-9.22s-.75-6.53-2.26-9.22c-1.5-2.69-3.54-4.81-6.1-6.38-2.56-1.57-5.47-2.35-8.74-2.35s-6.1,.78-8.69,2.35c-2.59,1.57-4.62,3.7-6.1,6.38-1.47,2.69-2.21,5.76-2.21,9.22s.74,6.47,2.21,9.22c1.47,2.75,3.5,4.91,6.1,6.48,2.59,1.57,5.49,2.35,8.69,2.35Z"/></g><g id="b-2"><path d="M160.75,75.36c-4.99,0-9.47-1.17-13.44-3.5-3.97-2.33-7.1-5.52-9.41-9.55-2.3-4.03-3.49-8.58-3.55-13.63V4.9c0-1.47,.46-2.65,1.39-3.55C136.66,.45,137.83,0,139.24,0s2.66,.45,3.55,1.34c.9,.9,1.34,2.08,1.34,3.55V30.82c2.24-2.69,4.94-4.81,8.11-6.38,3.17-1.57,6.64-2.35,10.42-2.35,4.67,0,8.86,1.17,12.58,3.5,3.71,2.34,6.64,5.5,8.78,9.5,2.14,4,3.22,8.53,3.22,13.58s-1.17,9.6-3.5,13.63c-2.34,4.03-5.49,7.22-9.46,9.55-3.97,2.34-8.48,3.5-13.54,3.5Zm0-8.64c3.26,0,6.18-.78,8.74-2.35,2.56-1.57,4.59-3.73,6.1-6.48,1.5-2.75,2.26-5.82,2.26-9.22s-.75-6.53-2.26-9.22c-1.5-2.69-3.54-4.81-6.1-6.38-2.56-1.57-5.47-2.35-8.74-2.35s-6.1,.78-8.69,2.35c-2.59,1.57-4.62,3.7-6.1,6.38-1.47,2.69-2.21,5.76-2.21,9.22s.74,6.47,2.21,9.22c1.47,2.75,3.5,4.91,6.1,6.48,2.59,1.57,5.49,2.35,8.69,2.35Z"/></g><g id="n"><path class="cls-1" d="M118.08,64.12c-.81,0-1.49-.29-2.01-.83-.53-.54-.79-1.22-.78-2.03l.31-24.73c.01-.85,.29-1.53,.83-2.04,.54-.51,1.22-.76,2.03-.75,.85,.01,1.53,.28,2.04,.8,.51,.52,.76,1.21,.75,2.06l-.31,24.73c-.01,.81-.28,1.49-.8,2.01-.52,.53-1.21,.79-2.06,.78Zm22.79,.29c-.81-.01-1.48-.29-2.01-.83-.53-.54-.79-1.22-.78-2.03l.17-13.64c.03-2.11-.34-3.83-1.1-5.17-.76-1.34-1.79-2.34-3.1-3.01-1.31-.66-2.81-1.01-4.51-1.03-1.55-.02-2.96,.28-4.23,.89-1.27,.61-2.27,1.44-3.03,2.49s-1.14,2.25-1.15,3.62l-3.49-.04c.03-2.33,.62-4.4,1.77-6.22,1.15-1.82,2.71-3.25,4.68-4.29,1.97-1.05,4.18-1.56,6.62-1.53,2.55,.03,4.83,.61,6.83,1.72,2,1.12,3.57,2.74,4.71,4.86,1.14,2.12,1.69,4.72,1.65,7.78l-.17,13.64c0,.81-.29,1.49-.83,2.01-.54,.53-1.22,.79-2.03,.78Z"/></g></svg>